<?xml version="1.0" encoding="UTF-8"?>
<svg id="Layer_1" xmlns="http://www.w3.org/2000/svg" viewBox="0 0 1237.62 250">
  <defs>
    <style>.cls-1{opacity:.3;}.cls-2{opacity:.55;}</style>
  </defs>
  <path class="cls-2" d="M.03,176.44c16.07,0,32.13,0,48.2,0,2.09,0,3.77-.1,4.77,2.59,6.21,16.73,19.14,25.03,36.19,27.73,12.89,2.03,25.47,.81,37.28-5.02,14.83-7.32,20.97-20.08,21.89-35.92,1.7-.78,2.88,.34,4.06,1.21,14.52,10.7,22.36,25.06,23.42,43.01,.15,2.49,1.45,5.1-.2,7.58-8.66,11.95-20.52,19.77-34.19,24.45-32.03,10.96-63.96,9.89-94.84-4.03-23.42-10.56-38.3-28.99-45.03-53.83-.34-1.26-.3-2.75-1.55-3.65v-4.11Z" />
  <path class="cls-2" d="M19.92,32.75C32.1,16.28,49.09,7.6,68.59,3.1c3.72-.86,7.55-1.2,11.34-1.78,1.87-.88,4,.34,5.85-.73h18.14c1.54,1.04,3.42-.14,4.99,.75,22.04,2.43,41.85,9.9,57.6,26.01,11.1,11.36,17.74,25.17,21.15,40.6,.41,1.85-.02,2.51-1.9,2.5-15.25-.03-30.49-.04-45.74,.02-1.74,0-2.4-.92-2.94-2.28-8.44-21.61-30.56-28.23-49.94-26.01-10.95,1.26-20.73,4.86-28.6,12.91-6.28,6.44-9.73,14.11-10.7,22.96-.12,1.1-.22,2.18-.86,3.12-1.3,.89-2.41,.14-3.36-.57-16.11-11.9-24.87-27.43-23.68-47.85Z" />
  <path d="M716.58,125.08c0-38.74,.04-77.48-.07-116.22,0-3.3,.67-4.44,4.22-4.39,14.28,.21,28.56,.16,42.85,.03,2.86-.03,3.7,.77,3.7,3.66-.07,77.75-.08,155.51,.02,233.26,0,3.41-1.2,4.02-4.26,3.99-14.14-.14-28.29-.17-42.43,.02-3.29,.04-4.1-.91-4.09-4.12,.11-38.74,.07-77.48,.07-116.22Z" />
  <path d="M295.11,5.51c.76-1.49,2.16-.92,3.29-.92,14.56-.04,29.12,.03,43.69-.08,2.42-.02,3.55,.69,4.44,3.03,29.97,78.24,60.02,156.45,90.06,234.66,.33,.87,.6,1.77,1.06,3.14-4.87,0-9.35,0-13.83,0-11.26,0-22.53-.1-33.79,.07-2.82,.04-4.05-.84-5.02-3.46-6.22-16.79-12.62-33.51-18.97-50.25-.48-1.27-1.08-2.5-1.63-3.75-2.21-2.06-2.75-4.95-3.78-7.59-4.56-11.65-8.85-23.4-13.39-35.06-9.55-25.74-19.54-51.31-29.12-77.04-7.17-19.38-14.69-38.63-21.9-58-.58-1.55-1.17-3.07-1.12-4.75Z" />
  <path class="cls-2" d="M625.77,168.2c-.02-53.38-.03-106.76-.12-160.13,0-2.68,.81-3.53,3.51-3.5,13.46,.11,26.91,.17,40.37-.03,3.57-.05,4.28,1.17,4.27,4.46-.09,52.01-.07,104.02-.07,156.03,0,25.05,0,50.09,0,75.14q0,5.22-5.42,5.23c-13.04,0-26.09,.03-39.13-.04-1.39,0-3.04,.77-4.18-.78-.6-3.1-.58-6.24-.57-9.39,.01-20.11-.01-40.22,.03-60.34,0-2.27-.5-4.7,1.31-6.65Z" />
  <path d="M625.77,168.2c0,24.05,.01,48.1-.03,72.14,0,1.41,.67,3.02-.73,4.23-32.62-48.34-65.24-96.68-97.87-145.01-5.05-7.48-10.18-14.92-15.27-22.37-1.55-.78-2.4-2.2-3.32-3.57-13.79-20.61-27.92-41.01-41.59-61.7-1.36-2.06-2.62-4.15-3.56-6.44,1.04-1.74,2.73-.87,4.08-.87,15.93-.07,31.86,.04,47.79-.12,2.99-.03,4.64,.95,6.24,3.42,33.64,52.07,67.36,104.09,101.09,156.11,.95,1.47,1.65,3.15,3.18,4.19Z" />
  <path class="cls-2" d="M295.11,5.51c3.81,7.4,6.15,15.38,9.13,23.11,5.04,13.09,9.88,26.26,14.8,39.39-.27,1.47-.48,2.95-1.05,4.37-14.94,37.26-30.04,74.45-45.08,111.66-7.73,20.54-16.33,40.73-24.31,61.17-.5,1.28-1.29,2.39-2.19,3.42-4.79-.97-7.22-5.17-10.61-7.95-8.78-7.19-17.15-14.88-25.79-22.25-1.91-1.63-1.99-2.96-1.06-5.21,18.35-44.29,36.61-88.62,54.88-132.95,9.94-24.12,19.87-48.24,29.83-72.36,.35-.86,.96-1.61,1.45-2.41Z" />
  <path d="M19.92,32.75c1.16,5.3,.92,10.79,2.4,16.07,3.96,14.04,11.83,25.04,24.64,32.35,8.68,6.53,18.69,10.34,29.02,13.01,18.3,4.73,36.79,8.73,55.14,13.26,13.72,3.39,26.53,8.92,37.4,18.15,16.28,13.82,22.44,31.9,21.48,52.7-.64,13.83-4.75,26.57-12.99,37.86-.39,.54-.92,.98-1.39,1.47-.94-13.3-2.79-26.36-11.27-37.38-4.44-5.76-9.47-10.93-16-14.42-11.73-8.03-25.07-12.2-38.66-15.62-18.47-4.64-37.38-7.55-55.55-13.37-14.22-4.56-26.92-11.73-36.15-23.88C1.43,91.15,2.35,54.61,19.92,32.75Z" />
  <path class="cls-2" d="M463.4,5.48c5.16,6.4,9.37,13.45,13.95,20.24,11.56,17.12,23.01,34.3,34.51,51.46-1.03,1.5-.51,3.2-.51,4.79-.03,52.84-.07,105.68,.06,158.53,0,3.96-1.06,5.06-5.02,4.99-13.18-.24-26.37-.15-39.55-.05-2.59,.02-3.61-.61-3.6-3.41,.08-78.71,.09-157.43,.11-236.14,0-.14,.03-.27,.05-.41Z" />
  <path d="M796.43,48.21c-.05-13.68-.07-27.36-.17-41.04-.01-1.89,.52-2.84,2.54-2.62,.81,.09,1.65,.01,2.47,.01,57.11,0,114.21,.03,171.32-.09,3.37,0,5.11,1.13,6.71,3.93,7.45,13.07,15.11,26.02,22.69,39.01-1.6,2.55-4.27,2.13-6.6,2.13-29.22,.07-58.46,.86-87.64-.17-35.64-1.25-71.26-.15-106.88-.75-1.48-.02-3.02,.4-4.43-.41Z" />
  <path d="M1127.89,105.84c16.47-29.01,32.95-58.02,49.42-87.03,.68-1.19,1.56-2.31,1.99-3.58,3-8.88,8.82-11.79,18.3-10.91,11.03,1.02,22.22,.2,33.34,.28,1.85,.01,4.41-1,5.42,.64,1.33,2.17-.52,4.37-1.7,6.37-6.45,10.96-12.89,21.93-19.34,32.9-21.49,36.55-42.98,73.1-64.47,109.64-.92,.93-2.09,1.32-3.35,1.32-14.89,0-29.79,.51-44.67-.26-3.08-1.37-1.86-3.48-.79-5.39,5.48-9.75,10.93-19.51,16.53-29.2,2.05-3.54,3.94-7.17,6.01-10.7,.9-1.53,1.66-3.15,3.3-4.07Z" />
  <path class="cls-2" d="M873.9,244.68c0-43.29,0-86.59,.01-129.88,1.91-3.15,5.37-4.21,8.34-5.78,12.01-6.34,24.06-12.61,36.07-18.97,.97-.51,1.97-.98,3-1.35,2.1-.76,3.54-.56,3.29,2.2-.06,.68,0,1.37,0,2.05,0,49.15,0,98.3,0,147.45q0,4.64-4.63,4.64c-14.01,0-28.02,.01-42.03-.02-1.35,0-2.75,.32-4.05-.35Z" />
  <path class="cls-2" d="M1127.89,105.84c-8.33,14.85-16.65,29.7-24.98,44.55-.65,1.16-1.77,2.16-1.31,3.71-.27,.35-.58,.39-.93,.1-3.76-8.07-8.67-15.49-13.12-23.17-19.62-33.85-39.31-67.65-58.98-101.47-4.26-7.33-8.56-14.65-12.83-21.97-.47-.8-1.22-1.51-.93-2.81,1.01-.05,2.06-.16,3.11-.16,15.79-.01,31.58,.07,47.37-.08,2.73-.03,4.24,.9,5.54,3.15,14.13,24.7,28.32,49.36,42.49,74.03,4.23,7.35,8.48,14.69,12.71,22.04,.48,.83,.84,1.74,1.86,2.07Z" />
  <path class="cls-1" d="M246.42,248.64c3.61-9.4,7.13-18.83,10.85-28.18,4.88-12.24,9.92-24.42,14.89-36.63,1.27-1.52,3.04-2.29,4.76-3.14,19.61-9.77,39.23-19.55,58.85-29.32,4.16-2.07,8.37-4.07,12.39-6.41,5.42,14.33,10.84,28.66,16.27,42.99-8.2,4.1-16.43,8.12-24.58,12.31-7.79,4.01-15.46,8.26-23.24,12.3-22.99,11.92-46.01,23.79-69.03,35.67-.36,.19-.77,.28-1.15,.42Z" />
  <path class="cls-1" d="M1100.68,154.21c.31-.03,.62-.07,.93-.1,16.42,.02,32.84,.03,49.26,.05,.03,29.28,.02,58.56,.13,87.84,0,2.71-.87,3.52-3.55,3.5-14.28-.1-28.55-.17-42.83,.04-3.49,.05-4.03-1.28-4.02-4.3,.1-29.01,.07-58.01,.08-87.02Z" />
  <path class="cls-1" d="M873.9,244.68c15.52,0,31.03-.05,46.55,.06,2.78,.02,3.82-.69,3.82-3.66-.08-50.1-.06-100.19-.07-150.29,0-.52-.11-1.05-.24-2.23-16.89,8.86-33.47,17.55-50.05,26.24,0-15.59,.09-31.18-.1-46.77-.04-3.28,1.14-4.85,4-6.19,8.16-3.83,16.17-7.98,24.17-12.78h-3.77c-32.38,0-64.76,.01-97.14-.03-1.55,0-3.32,.69-4.64-.82,67.26,.05,134.52,.1,201.78,.12,1.29,0,2.8,.53,3.77-.92,1.14,2.04-.97,1.91-1.76,2.31-16.53,8.6-33.11,17.12-49.67,25.66-7.18,3.71-14.33,7.49-21.55,11.12-2.84,1.43-4.09,3.2-4.08,6.65,.14,49.13,.05,98.25,.18,147.38,.01,3.88-.92,5.14-4.96,5.07-14-.25-28-.08-42.01-.12-1.43,0-3.05,.6-4.25-.8Z" />
</svg>