<?xml version="1.0" encoding="utf-8"?>
<!-- Generator: Adobe Illustrator 26.3.1, SVG Export Plug-In . SVG Version: 6.00 Build 0)  -->
<svg version="1.1" id="Layer_1" xmlns="http://www.w3.org/2000/svg" xmlns:xlink="http://www.w3.org/1999/xlink" x="0px" y="0px" viewBox="0 0 1637.3 250" style="enable-background:new 0 0 1637.3 250;" xml:space="preserve">
	<style type="text/css">
	.st0{fill:url(#SVGID_1_);}
	.st1{fill:url(#SVGID_00000091727707214149533670000001604216702469174962_);}
</style>
	<g>
		<path d="M1633.5,94.2l-28,3.7c0,0-1.9-11.2-11.2-18.7c-9.3-7.5-41-5.6-41,13c0,16.8,13,14.9,39.2,20.5c24.2,5.6,44.8,13,44.8,46.7
		c0,18.7-13,41-54.1,41c-67.2,0-61.6-50.4-61.6-50.4h29.9c0,0,1.9,16.8,13,20.5c13,5.6,35.5,3.7,39.2-7.5c3.7-11.2,3.7-24.2-31.7-28
		c-35.5-5.6-50.4-20.5-50.4-44.8c1.9-22.4,14.9-41,61.6-41C1629.8,51.3,1633.5,94.2,1633.5,94.2L1633.5,94.2z M1504.8,94.2l-28,3.7
		c0,0-1.9-11.2-11.2-18.7c-9.3-7.5-41-5.6-41,13c0,16.8,13,14.9,39.2,20.5c24.2,5.6,44.8,13,44.8,46.7c0,18.7-13,41-54.1,41
		c-67.2,0-61.6-50.4-61.6-50.4h31.7c0,0,1.9,16.8,13,20.5c13,5.6,35.5,3.7,39.2-7.5c3.7-11.2,3.7-24.2-31.7-28
		c-31.7-3.7-48.5-16.8-48.5-37.3v-7.5c1.9-22.4,14.9-41,59.7-41C1499.2,51.3,1504.8,94.2,1504.8,94.2L1504.8,94.2z M1346.2,146.5
		h31.7v1.9c-1.9,11.2-7.5,50.4-61.6,50.4c-48.5,0-65.3-37.3-65.3-76.5c0-41,24.2-70.9,69-70.9c50.4,0,54.1,48.5,54.1,48.5l-29.9,3.7
		c0,0-1.9-26.1-28-26.1c-26.1,0-35.5,20.5-35.5,44.8s7.5,52.2,33.6,52.2C1340.6,174.4,1346.2,146.5,1346.2,146.5L1346.2,146.5z
		 M1187.6,55.1v141.8h-26.1v-13c0,0-9.3,16.8-31.7,16.8c-24.2,0-41-11.2-42.9-54.1c0-44.8,28-56,46.7-56c16.8,0,28,13,28,13V55.1
		H1187.6z M1161.5,144.6c0-14.9-1.9-31.7-24.2-31.7s-22.4,26.1-22.4,33.6c0,9.3,1.9,29.9,22.4,29.9
		C1157.8,176.3,1161.5,159.5,1161.5,144.6L1161.5,144.6z M1066.4,126v69h-28v-67.2c0-9.3-5.6-16.8-16.8-16.8s-22.4,9.3-22.4,18.7
		V195h-28V90.5h28v14.9c0,0,9.3-18.7,37.3-16.8C1068.3,92.4,1066.4,122.2,1066.4,126z M920.9,92.4h28v104.5h-28V92.4z M920.9,55.1
		h28v24.2h-28V55.1z M909.7,92.4l-29.9,104.5h-28l-18.7-69l-18.7,69h-26.1L758.5,92.4h29.9l14.9,67.2l20.5-67.2H848l16.8,69l14.9-69
		L909.7,92.4L909.7,92.4z M717.5,53.2h28V195h-28V53.2z M667.2,92.4h28v104.5h-28V92.4L667.2,92.4z M667.2,55.1h28v24.2h-28V55.1
		L667.2,55.1z M644.8,129.7V195h-26.1v-13c0,0-7.5,9.3-18.7,13c-16.8,5.6-41,1.9-48.5-16.8c-5.6-14.9,0-31.7,14.9-39.2
		c18.7-9.3,50.4-7.4,50.4-7.4s1.9-7.5-1.9-13c-1.9-5.6-7.5-7.5-14.9-7.5c-18.7,0-18.7,13-18.7,13l-26.1-1.9c0,0,0-13,13-22.4
		c7.5-5.6,16.8-7.5,33.6-7.5C622.4,92.4,644.8,99.8,644.8,129.7z M601.8,176.3c18.7-3.7,16.8-26.1,16.8-26.1h-7.5
		c-5.6,0-13,0-18.7,1.9c-9.3,1.9-13,5.6-14.9,9.3c-1.9,5.6,0,11.2,5.6,14.9C586.9,178.2,592.5,178.2,601.8,176.3z M562.7,53.2v28
		h-42.9v115.6H488V79.3h-41V53.2L562.7,53.2z" />
		<g>
			<linearGradient id="SVGID_1_" gradientUnits="userSpaceOnUse" x1="104.504" y1="62.4881" x2="417.9204" y2="62.4881">
				<stop offset="0" style="stop-color:#000000" />
				<stop offset="1" style="stop-color:#000000;stop-opacity:0.6" />
			</linearGradient>
			<path class="st0" d="M417.9,42.9c0,0-26.1,39.2-70.9,31.7C302.2,67.2,294.8,0,214.6,0c-98.9,0-110.1,83.9-110.1,83.9
			s28-41,70.9-33.6S235.1,125,322.8,125S417.9,42.9,417.9,42.9z" />

			<linearGradient id="SVGID_00000148626450641287774250000013278320673212954784_" gradientUnits="userSpaceOnUse" x1="2.374225e-05" y1="187.5119" x2="313.4165" y2="187.5119">
				<stop offset="0" style="stop-color:#000000" />
				<stop offset="1" style="stop-color:#000000;stop-opacity:0.6" />
			</linearGradient>
			<path style="fill:url(#SVGID_00000148626450641287774250000013278320673212954784_);" d="M313.4,167.9c0,0-26.1,39.2-70.9,31.7
			S190.3,125,110.1,125C11.2,125,0,209,0,209s28-41,70.9-33.6c41,7.5,59.7,74.6,147.4,74.6S313.4,167.9,313.4,167.9z" />
		</g>
	</g>
</svg>