<?xml version="1.0" encoding="utf-8"?>
<!-- Generator: Adobe Illustrator 26.3.1, SVG Export Plug-In . SVG Version: 6.00 Build 0)  -->
<svg version="1.1" id="layer" xmlns="http://www.w3.org/2000/svg" xmlns:xlink="http://www.w3.org/1999/xlink" x="0px" y="0px"
	 viewBox="0 0 600 135.8" style="enable-background:new 0 0 600 135.8;" xml:space="preserve">
<path d="M299.3,34C275.9,34,259,49.3,259,72.2c0,22.9,19,38.2,42.4,38.2c14.2,0,26.6-5.6,34.4-15L319.6,86
	c-4.3,4.7-10.8,7.4-18.1,7.4c-10.2,0-18.8-5.3-22-13.8H339c0.5-2.4,0.7-4.8,0.7-7.4C339.6,49.2,322.8,34,299.3,34L299.3,34z
	 M279.2,64.7c2.7-8.5,9.9-13.8,20.1-13.8s17.4,5.3,20.1,13.8H279.2z M527.8,34c-23.4,0-40.3,15.3-40.3,38.2
	c0,22.9,19,38.2,42.4,38.2c14.2,0,26.6-5.6,34.4-15L548.1,86c-4.3,4.7-10.8,7.4-18.1,7.4c-10.2,0-18.8-5.3-22-13.8h59.5
	c0.5-2.4,0.7-4.8,0.7-7.4C568.2,49.2,551.3,34,527.8,34L527.8,34z M507.8,64.7c2.7-8.5,9.9-13.8,20.1-13.8
	c10.2,0,17.4,5.3,20.1,13.8H507.8L507.8,64.7z M425,72.2c0,12.7,8.3,21.2,21.2,21.2c8.7,0,15.3-4,18.7-10.4l16.3,9.4
	c-6.7,11.2-19.4,18-35,18c-23.5,0-40.3-15.3-40.3-38.2c0-22.9,16.9-38.2,40.3-38.2c15.6,0,28.2,6.8,35,18l-16.3,9.4
	C461.5,54.9,455,51,446.2,51C433.3,50.9,425,59.4,425,72.2z M600,10.6v97.6h-19.1V10.6H600z M78.4,0l78.4,135.8H0L78.4,0z
	 M274.5,10.6l-58.8,101.9L156.9,10.6H179l36.8,63.7l36.8-63.7L274.5,10.6L274.5,10.6z M399.5,36.1v20.6c-2.1-0.6-4.4-1-6.8-1
	c-12.3,0-21.2,8.5-21.2,21.2v31.4h-19.1V36.1h19.1v19.5C371.5,44.8,384,36.1,399.5,36.1z"/>
</svg>
