<?xml version="1.0" standalone="no"?>
<!DOCTYPE svg PUBLIC "-//W3C//DTD SVG 20010904//EN"
 "http://www.w3.org/TR/2001/REC-SVG-20010904/DTD/svg10.dtd">
<svg version="1.0" xmlns="http://www.w3.org/2000/svg"
 width="500.000000pt" height="500.000000pt" viewBox="0 0 500.000000 500.000000"
 preserveAspectRatio="xMidYMid meet">
<metadata>
Created by potrace 1.14, written by Peter Selinger 2001-2017
</metadata>
<g transform="translate(0.000000,500.000000) scale(0.100000,-0.100000)"
fill="#000000" stroke="none">
<path d="M579 4993 c-9 -2 -21 -14 -28 -26 -8 -17 -11 -595 -9 -2339 l3 -2318
99 116 c55 63 114 132 131 152 18 20 83 96 145 167 62 72 126 146 144 165 17
19 89 103 161 185 71 83 163 188 205 235 41 47 92 106 113 130 87 101 145 167
192 220 28 30 64 72 82 93 18 20 36 37 41 37 5 0 31 -28 58 -62 27 -35 145
-184 263 -333 416 -524 492 -620 504 -635 7 -8 100 -125 206 -260 107 -135
206 -259 220 -276 14 -17 61 -76 104 -132 61 -78 85 -101 109 -106 17 -3 272
-6 567 -6 505 0 537 2 560 19 18 14 22 24 18 42 -5 20 -111 153 -282 354 -24
28 -71 84 -105 125 -34 41 -69 84 -78 95 -9 11 -60 72 -112 135 -52 63 -97
117 -100 120 -4 3 -37 43 -75 90 -38 47 -72 87 -75 90 -42 38 -1150 1384
-1147 1393 3 7 54 73 113 148 60 74 123 153 139 173 17 21 63 80 103 130 41
50 84 105 97 121 37 46 444 558 458 575 6 8 46 58 87 110 41 52 79 100 85 106
5 6 48 60 95 120 47 59 177 223 290 365 258 324 245 307 373 468 60 75 113
145 117 156 7 15 3 25 -16 43 l-25 22 -517 0 c-284 0 -527 -3 -540 -6 -19 -5
-86 -84 -245 -284 -7 -9 -55 -69 -108 -135 -53 -66 -214 -268 -358 -450 -145
-181 -276 -346 -291 -365 -120 -150 -411 -513 -435 -544 -27 -34 -97 -121
-158 -197 -12 -15 -78 -97 -146 -183 -68 -86 -126 -154 -128 -152 -3 3 -6 518
-6 1146 -2 1118 -2 1142 -21 1156 -17 12 -92 14 -440 13 -232 -1 -428 -3 -437
-6z"/>
<path d="M3734 2980 c-279 -73 -467 -315 -466 -599 1 -108 15 -166 63 -268 67
-140 191 -254 335 -309 86 -32 128 -39 239 -38 328 4 598 281 597 614 0 141
-42 266 -126 377 -146 193 -409 284 -642 223z"/>
</g>
</svg>
