<?xml version="1.0" encoding="UTF-8"?><svg xmlns="http://www.w3.org/2000/svg" viewBox="0 0 291 508"><defs><style>.c{fill:#6b6b6b;}.d{fill:#00a3c4;}.e{fill:#718096;}.f{fill:#553c9a;}</style></defs><g id="a"/><g id="b"><g><path class="f" d="M210.88,243.62c0,6.45,5.23,11.67,11.67,11.67s11.67-5.23,11.67-11.67-5.23-11.67-11.67-11.67-11.67,5.23-11.67,11.67h0Zm0,0"/><path class="f" d="M92.11,243.62c0,6.45-5.23,11.67-11.67,11.67s-11.67-5.23-11.67-11.67,5.23-11.67,11.67-11.67,11.67,5.23,11.67,11.67h0Zm0,0"/><path class="f" d="M121.36,322.68c-2.02,0-3.94,.86-5.28,2.37-1.34,1.51-1.97,3.52-1.72,5.52,2.04,16.78,16.4,29.76,33.67,29.76h8.34c17.27,0,31.63-12.98,33.67-29.76,.32-2.61-.85-5.18-3.02-6.66-2.17-1.48-4.99-1.63-7.3-.39-8.17,4.4-17.51,6.89-27.52,6.89s-19.35-2.49-27.52-6.89c-1.02-.55-2.16-.84-3.32-.84h0Zm15.37,20.03c5,1.09,10.15,1.77,15.47,1.77s10.47-.68,15.47-1.77c-3.19,2.2-7.05,3.54-11.3,3.54h-8.34c-4.25,0-8.1-1.34-11.3-3.54h0Zm0,0"/><path class="d" d="M121.34,329.72c1.62,13.32,12.91,23.58,26.69,23.58h8.34c13.78,0,25.06-10.25,26.69-23.58-9.17,4.93-19.67,7.73-30.85,7.73s-21.68-2.8-30.85-7.73h0Zm0,0"/><path class="f" d="M87.19,216.42c-3.89,0-7.04,3.15-7.04,7.04,0,.12,0,.37,0,.74v48.24c0,39.79,32.25,72.04,72.04,72.04s72.04-32.25,72.04-72.04v-48.24c0-.25,0-.56,0-.93-.1-3.81-3.22-6.85-7.03-6.85H87.19Zm7.03,14.08h115.93v41.95c0,32.23-25.73,57.96-57.97,57.96s-57.96-25.73-57.96-57.96v-41.95Zm0,0"/><path class="e" d="M87.2,223.46c0,.25,0,.5,0,.74v48.24c0,36.01,28.99,65,65,65s65-28.99,65-65v-48.24c0-.25,0-.5,0-.74H87.2Zm0,0"/><path class="e" d="M80.6,68.75H223.25c8,0,14.44,6.44,14.44,14.44v125.82c0,8-6.44,14.44-14.44,14.44H80.6c-8,0-14.44-6.44-14.44-14.44V83.2c0-8,6.44-14.44,14.44-14.44h0Zm0,0"/><path class="f" d="M80.6,65.23c-9.89,0-17.96,8.07-17.96,17.96v125.82c0,9.89,8.07,17.96,17.96,17.96H223.25c9.89,0,17.96-8.07,17.96-17.96V83.2c0-9.89-8.07-17.96-17.96-17.96H80.6Zm0,7.04H223.25c6.11,0,10.92,4.81,10.92,10.92v125.82c0,6.11-4.81,10.92-10.92,10.92H80.6c-6.11,0-10.92-4.81-10.92-10.92V83.2c0-6.11,4.81-10.92,10.92-10.92h0Zm0,0"/><path class="d" d="M241.39,104.89c-1.28,0-2.52,.17-3.69,.47v92.64c1.18,.31,2.42,.47,3.69,.47h3.24c8,0,14.44-6.44,14.44-14.44V119.34c0-8-6.44-14.44-14.44-14.44h-3.24Zm0,0"/><path class="f" d="M241.39,101.38c-1.58,0-3.12,.2-4.59,.59-1.55,.41-2.63,1.8-2.63,3.4v92.64c0,1.6,1.08,3,2.63,3.4,1.46,.38,3,.59,4.59,.59h3.24c9.89,0,17.96-8.07,17.96-17.96V119.34c0-9.89-8.07-17.96-17.96-17.96h-3.24Zm0,7.04h3.24c6.11,0,10.92,4.81,10.92,10.92v64.7c0,6.11-4.81,10.92-10.92,10.92h-3.24c-.06,0-.11-.02-.17-.02V108.44c.06,0,.11-.02,.17-.02h0Zm0,0"/><path class="d" d="M59.76,104.89c-8,0-14.44,6.44-14.44,14.44v64.7c0,8,6.44,14.44,14.44,14.44h3.24c1.09,0,2.14-.12,3.16-.35V105.24c-1.02-.23-2.07-.35-3.16-.35h-3.24Zm0,0"/><path class="f" d="M59.76,101.38c-9.89,0-17.96,8.07-17.96,17.96v64.7c0,9.89,8.07,17.96,17.96,17.96h3.24c1.35,0,2.67-.15,3.92-.43,1.61-.36,2.76-1.79,2.76-3.44V105.24c0-1.65-1.15-3.08-2.76-3.44-1.26-.28-2.57-.43-3.92-.43h-3.24Zm0,7.04h2.88v86.55h-2.88c-6.11,0-10.92-4.81-10.92-10.92V119.34c0-6.11,4.81-10.92,10.92-10.92h0Zm0,0"/><path class="f" d="M96.62,105.38c-3.85,0-6.94,3.1-6.94,6.94v57.13c0,3.85,3.1,6.94,6.94,6.94h8.39v21.39c0,2.89,2.33,5.21,5.22,5.21h83.93c2.89,0,5.21-2.32,5.21-5.21v-21.39h9.03c3.85,0,6.94-3.1,6.94-6.94v-57.13c0-3.85-3.1-6.94-6.94-6.94H96.62Zm0,0"/><path class="d" d="M104.78,68.75v10.45c0,2.59,2.09,4.68,4.68,4.68h84.23c2.59,0,4.68-2.09,4.68-4.68v-10.45H104.78Zm0,0"/><path class="f" d="M104.78,65.23c-.93,0-1.83,.37-2.49,1.03-.66,.66-1.03,1.56-1.03,2.49v10.45c0,4.48,3.72,8.2,8.2,8.2h84.23c4.48,0,8.2-3.72,8.2-8.2v-10.45c0-1.94-1.58-3.52-3.52-3.52H104.78Zm3.52,7.04h86.56v6.93c0,.7-.46,1.16-1.16,1.16H109.47c-.7,0-1.16-.46-1.16-1.16v-6.93Zm0,0"/><path class="f" d="M85.92,274.93v7.04h63.77v8.6c0,1.94,1.58,3.52,3.52,3.52h63.66v-7.04h-60.14v-8.6c0-1.94-1.58-3.52-3.52-3.52H85.92Zm0,0"/><path class="f" d="M197.56,255.37c-7.75,0-14.18,6.43-14.18,14.18s6.43,14.18,14.18,14.18,14.18-6.43,14.18-14.18-6.43-14.18-14.18-14.18h0Zm0,14.08c.14,0,.11-.04,.11,.11s.04,.11-.11,.11-.11,.04-.11-.11-.04-.11,.11-.11h0Zm0,0"/><path class="d" d="M204.7,269.56c0,3.95-3.2,7.14-7.14,7.14s-7.15-3.2-7.15-7.14,3.2-7.14,7.15-7.14,7.14,3.2,7.14,7.14h0Zm0,0"/><path class="d" d="M155.92,410.13s-.56,10.86,3.74,17.3c0,0,10.76-26.23,5.03-37.64-5.73-11.41-24.23-8.09-27.91,6.3-3.68,14.39-4.39,26.36-10.58,31.63,0,0,7.86-1.95,16.24-12.38,0,0-2.64,7.23-1.51,10.97,1.14,3.74,.65,12.85-.88,15.59,0,0,10.86-4.55,15.88-31.78h0Zm0,0"/><path class="f" d="M144.11,381.65c1.65-.85,3.39-1.46,5.15-1.83,7.05-1.46,14.98,1.21,18.58,8.39,3.74,7.46,1.95,17.25-.1,25.52-2.04,8.27-4.82,15.03-4.82,15.03-.49,1.2-1.61,2.04-2.91,2.17-1.3,.13-2.56-.47-3.28-1.55-.64-.96-1.17-1.97-1.63-2.99-1.97,5.2-4.12,9.15-6.16,11.92-1.86,2.52-3.61,4.18-4.96,5.23-1.35,1.05-2.58,1.6-2.58,1.6-1.38,.58-2.98,.22-3.98-.9-1-1.12-1.18-2.75-.45-4.06,.03-.06,.84-3.07,1-5.9,.16-2.83-.12-5.98-.41-6.95-.19-.63-.27-1.24-.35-1.85-1.52,1.2-2.97,2.23-4.24,2.98-3.35,1.99-5.93,2.67-5.93,2.67-1.58,.39-3.23-.36-3.98-1.81-.75-1.45-.4-3.23,.85-4.29,2.15-1.83,3.76-5.39,5.11-10.6,1.35-5.21,2.46-11.85,4.35-19.22,1.63-6.38,5.79-11.03,10.74-13.57h0Zm3.23,6.24c-3.24,1.64-6.01,4.66-7.14,9.08-1.8,7.02-2.88,13.56-4.35,19.24-.14,.54-.31,1.03-.45,1.56,1.38-1.3,2.82-2.77,4.31-4.63,1.08-1.34,2.97-1.7,4.47-.86,1.5,.85,2.16,2.65,1.58,4.27,0,0-.59,1.62-1.05,3.66-.46,2.04-.56,4.54-.39,5.08,.56,1.84,.7,3.93,.73,6.09,2.6-4.37,5.46-11.15,7.44-21.89,.34-1.82,2.03-3.07,3.87-2.85,1.84,.22,3.2,1.82,3.1,3.67,0,0-.13,2.43,.24,5.66,0,.04,.02,.08,.02,.12,.42-1.41,.82-2.47,1.21-4.04,1.9-7.7,2.62-16.73,.64-20.68-2.12-4.22-6.31-5.6-10.86-4.66-1.14,.24-2.27,.63-3.35,1.17h0Zm0,0"/><path class="f" d="M54.64,289.95c-.18,2.4-.13,4.74,.21,6.98,.68,4.49,2.72,8.74,6.54,11.5,7.65,5.52,20.21,4.88,40.54-2.81l-2.49-6.58c-19.5,7.37-29.76,6.69-33.93,3.68-2.09-1.51-3.22-3.65-3.7-6.85-.48-3.2-.15-7.32,.83-11.78,3.92-17.85,17.8-40.48,17.8-40.48l-5.98-3.72s-14.32,22.72-18.7,42.69c-.55,2.5-.95,4.96-1.12,7.36h0Zm0,0"/><path class="f" d="M93.05,298.63c1.03-7.06,7.77-12.07,14.83-11.04,7.06,1.03,12.07,7.77,11.04,14.83-1.03,7.06-7.77,12.07-14.83,11.04-7.06-1.03-12.07-7.77-11.04-14.83h0Zm11.94,1.75c-.07,.47,.38,1.07,.85,1.14,.47,.07,1.07-.38,1.14-.85,.07-.47-.38-1.07-.85-1.14-.47-.07-1.07,.38-1.14,.85h0Zm0,0"/><path class="e" d="M105.11,306.49c3.3,.48,6.36-1.8,6.84-5.09,.48-3.3-1.8-6.36-5.1-6.84-3.3-.48-6.36,1.8-6.84,5.09-.48,3.3,1.8,6.36,5.1,6.84h0Zm0,0"/><path class="f" d="M248.48,289.95c.18,2.4,.13,4.74-.21,6.98-.68,4.49-2.72,8.74-6.54,11.5-7.65,5.52-20.21,4.88-40.54-2.81l2.49-6.58c19.49,7.37,29.76,6.69,33.93,3.68,2.09-1.51,3.22-3.65,3.7-6.85,.49-3.2,.15-7.32-.83-11.78-3.92-17.85-17.8-40.48-17.8-40.48l5.98-3.72s14.32,22.72,18.7,42.69c.55,2.5,.95,4.96,1.12,7.36h0Zm0,0"/><path class="f" d="M210.07,298.63c-1.03-7.06-7.77-12.07-14.83-11.04-7.06,1.03-12.07,7.77-11.04,14.83,1.03,7.06,7.77,12.07,14.83,11.04,7.06-1.03,12.07-7.77,11.04-14.83h0Zm-11.94,1.75c.07,.47-.38,1.07-.85,1.14-.47,.07-1.07-.38-1.14-.85-.07-.47,.38-1.07,.85-1.14,.47-.07,1.07,.38,1.14,.85h0Zm0,0"/><path class="e" d="M198.01,306.49c-3.3,.48-6.36-1.8-6.84-5.09-.48-3.3,1.8-6.36,5.1-6.84,3.3-.48,6.36,1.8,6.84,5.09,.48,3.3-1.8,6.36-5.1,6.84h0Zm0,0"/><path class="d" d="M112.71,122.85c-2.25,8.28,1.36,17.04,8.79,21.34,7.43,4.29,16.83,3.04,22.88-3.06l-31.67-18.28Zm0,0"/><path class="d" d="M195.18,122.85c2.25,8.28-1.36,17.04-8.79,21.34-7.43,4.29-16.83,3.04-22.88-3.06l31.67-18.28Zm0,0"/><path class="d" d="M172.18,184.27c-2.19-8.3-9.7-14.08-18.28-14.08-8.58,0-16.09,5.78-18.28,14.08h36.57Zm0,0"/><path class="f" d="M26.25,4.15c-9.17,1.28-15.59,9.77-14.31,18.94,.19,1.36,.55,2.69,1.06,3.96-5.99,2.18-9.76,8.3-8.86,14.73,1.04,7.47,7.96,12.71,15.43,11.67,7.47-1.04,12.71-7.96,11.67-15.43-.03-.22-.1-.43-.14-.65,3.21-.49,6.2-1.89,8.62-4.04,3.01,2.91,7.19,4.31,11.37,3.73,7.47-1.04,12.71-7.96,11.67-15.43-1.04-7.47-7.96-12.71-15.43-11.67-1.68,.23-3.29,.79-4.76,1.61-3.52-5.34-9.77-8.27-16.17-7.43h0s-.08,0-.12,0h0l.31,2.25h0c5.91-.82,11.72,2.05,14.65,7.26,.33,.58,1.07,.75,1.62,.39,1.44-.96,3.07-1.59,4.79-1.83,6.25-.87,12,3.48,12.87,9.73,.87,6.25-3.48,12-9.73,12.87-3.82,.53-7.64-.9-10.17-3.81-.43-.5-1.2-.52-1.67-.05-2.25,2.29-5.19,3.77-8.36,4.21-.31,.04-.62,.08-.93,.1-.72,.05-1.21,.76-1.01,1.45,.15,.53,.27,1.07,.35,1.62,.87,6.25-3.48,12-9.73,12.87-6.25,.87-12-3.48-12.87-9.73-.8-5.75,2.83-11.17,8.45-12.62,.7-.18,1.06-.96,.73-1.61-.7-1.41-1.17-2.92-1.38-4.47-1.11-7.95,4.42-15.27,12.38-16.38l-.31-2.25Zm0,0"/><path class="f" d="M26.41,5.28c-8.56,1.19-14.54,9.1-13.35,17.66,.23,1.68,.74,3.31,1.49,4.82-6.17,1.59-10.17,7.56-9.3,13.87,.95,6.86,7.29,11.65,14.15,10.7,6.86-.95,11.65-7.29,10.7-14.15-.08-.6-.21-1.2-.38-1.79,.33-.02,.67-.06,1-.11,3.42-.48,6.6-2.07,9.02-4.54,2.78,3.2,6.99,4.77,11.19,4.19,6.86-.95,11.65-7.29,10.7-14.15-.95-6.86-7.29-11.65-14.15-10.7-1.88,.26-3.69,.95-5.27,2.01-3.16-5.6-9.42-8.71-15.8-7.82h0Zm0,0"/><path class="f" d="M14.08,31.59L45.97,15.15l9.51,43.68-10.67,5.5L14.08,31.59Zm0,0"/><path class="f" d="M282.63,15.26c-4.63-8.02-14.92-10.77-22.94-6.14-1.19,.69-2.29,1.52-3.27,2.47-4.28-4.73-11.36-5.92-16.98-2.67-6.53,3.77-8.78,12.16-5.01,18.69,3.77,6.53,12.16,8.78,18.69,5.01,.19-.11,.36-.25,.55-.37,1.66,2.79,4.09,5.03,6.98,6.46-1.56,3.88-1.29,8.28,.82,11.94,3.77,6.53,12.16,8.78,18.69,5.01,6.53-3.77,8.78-12.16,5.01-18.69-.85-1.47-1.97-2.75-3.29-3.81,3.63-5.27,3.99-12.16,.81-17.78h0s-.03-.08-.05-.11h0l-1.97,1.13h0c2.99,5.18,2.5,11.64-1.21,16.31-.41,.52-.3,1.28,.25,1.65,1.43,.97,2.63,2.25,3.49,3.75,3.16,5.47,1.29,12.43-4.18,15.58-5.47,3.16-12.43,1.29-15.58-4.17-1.93-3.34-2.04-7.42-.3-10.86,.3-.59,.03-1.31-.58-1.56-2.96-1.22-5.44-3.39-7.05-6.17-.16-.27-.3-.54-.44-.82-.32-.65-1.16-.84-1.72-.39-.43,.34-.89,.66-1.37,.93-5.47,3.16-12.43,1.29-15.58-4.18-3.16-5.47-1.29-12.43,4.18-15.58,5.03-2.9,11.41-1.58,14.87,3.09,.43,.58,1.29,.62,1.77,.08,1.04-1.18,2.26-2.18,3.62-2.96,6.95-4.01,15.81-1.64,19.83,5.31l1.97-1.14Zm0,0"/><path class="f" d="M281.65,15.83c-4.33-7.48-13.9-10.04-21.38-5.72-1.47,.85-2.79,1.93-3.91,3.2-3.8-5.12-10.83-6.58-16.35-3.39-6,3.46-8.06,11.13-4.59,17.13,3.46,6,11.14,8.05,17.14,4.59,.53-.3,1.03-.65,1.51-1.03,.15,.3,.31,.59,.47,.88,1.73,2.99,4.4,5.33,7.6,6.65-1.91,3.78-1.79,8.27,.33,11.94,3.46,6,11.14,8.06,17.14,4.59,6-3.46,8.06-11.14,4.59-17.13-.95-1.65-2.27-3.06-3.84-4.12,4.01-5.03,4.53-12.01,1.31-17.58h0Zm0,0"/><path class="f" d="M252.63,14.31l27.23,23.36-36.9,25.24-9.11-7.82,18.78-40.78Zm0,0"/><path class="c" d="M258.74,493.5c0,2.79-11.93,5.46-33.17,7.43-21.24,1.97-50.04,3.08-80.07,3.08s-58.84-1.11-80.07-3.08c-21.24-1.97-33.17-4.64-33.17-7.43s11.93-5.46,33.17-7.43c21.24-1.97,50.04-3.08,80.07-3.08s58.84,1.11,80.07,3.08c21.24,1.97,33.17,4.64,33.17,7.43h0Zm0,0"/></g></g></svg>