<?xml version="1.0" encoding="UTF-8"?><svg id="a" xmlns="http://www.w3.org/2000/svg" xmlns:xlink="http://www.w3.org/1999/xlink" viewBox="0 0 1008 505"><defs><style>.ad{fill:url(#u);}.ae{fill:url(#t);}.af{fill:url(#v);}.ag{fill:url(#e);}.ah{fill:url(#d);}.ai{fill:url(#g);}.aj{fill:url(#f);}.ak{fill:url(#p);}.al{fill:url(#o);}.am{fill:url(#s);}.an{fill:url(#q);}.ao{fill:url(#r);}.ap{fill:url(#i);}.aq{fill:url(#h);}.ar{fill:url(#k);}.as{fill:url(#j);}.at{fill:url(#m);}.au{fill:url(#l);}.av{fill:url(#n);}.aw{fill:url(#c);}.ax{fill:url(#b);}.ay{fill:url(#x);}.b`{fill:url(#w);}.ba{fill:url(#y);}.bb{fill:url(#aa);}.bc{fill:url(#ab);}.bd{fill:url(#a`);}.be{fill:url(#ac);}</style><linearGradient id="b" x1="900.65" y1="210.48" x2="963.37" y2="134.66" gradientTransform="matrix(1, 0, 0, 1, 0, 0)" gradientUnits="userSpaceOnUse"><stop offset="0" stop-color="#380b7f"/><stop offset="1" stop-color="#169dd8"/></linearGradient><linearGradient id="c" x1="862.28" y1="199.97" x2="987.04" y2="99.34" xlink:href="#b"/><linearGradient id="d" x1="380.58" y1="441.68" x2="543.49" y2="251.62" xlink:href="#b"/><linearGradient id="e" x1="930.17" y1="377.99" x2="947.84" y2="332.93" xlink:href="#b"/><linearGradient id="f" x1="860.75" y1="511.69" x2="820.27" y2="193.29" xlink:href="#b"/><linearGradient id="g" x1="992.02" y1="368.58" x2="997.83" y2="342.65" gradientTransform="matrix(1, 0, 0, 1, 0, 0)" gradientUnits="userSpaceOnUse"><stop offset="0" stop-color="#1894d2"/><stop offset="1" stop-color="#169dd8"/></linearGradient><linearGradient id="h" x1="569.86" y1="350.01" x2="399.37" y2="248.41" gradientTransform="matrix(1, 0, 0, 1, 0, 0)" gradientUnits="userSpaceOnUse"><stop offset="0" stop-color="#321068"/><stop offset="1" stop-color="#7c1fbf"/></linearGradient><linearGradient id="i" x1="656.34" y1="414.43" x2="643.54" y2="222.48" xlink:href="#h"/><linearGradient id="j" x1="839.1" y1="168.38" x2="620.91" y2="321.85" xlink:href="#h"/><linearGradient id="k" x1="711.62" y1="262.45" x2="586.26" y2="187.76" xlink:href="#h"/><linearGradient id="l" x1="747.4" y1="303.04" x2="738.81" y2="174.19" xlink:href="#h"/><linearGradient id="m" x1="881.24" y1="151.82" x2="748.37" y2="245.28" xlink:href="#h"/><linearGradient id="n" x1="830.8" y1="386.93" x2="1024.95" y2="377.35" xlink:href="#b"/><linearGradient id="o" x1="1032.31" y1="355.73" x2="891.2" y2="262.19" xlink:href="#g"/><linearGradient id="p" x1="562.94" y1="449.85" x2="827.42" y2="220.04" xlink:href="#b"/><linearGradient id="q" x1="664.81" y1="413.7" x2="640.82" y2="240.98" xlink:href="#b"/><linearGradient id="r" x1="570.86" y1="555.67" x2="530.38" y2="237.26" xlink:href="#b"/><linearGradient id="s" x1="916.1" y1="234.43" x2="922.47" y2="206" xlink:href="#g"/><linearGradient id="t" x1="693.25" y1="458.72" x2="670.51" y2="391.22" xlink:href="#h"/><linearGradient id="u" x1="594.58" y1="552.63" x2="554.11" y2="234.23" xlink:href="#h"/><linearGradient id="v" x1="810.22" y1="391.15" x2="743.85" y2="309.69" xlink:href="#h"/><linearGradient id="w" x1="818.52" y1="501.74" x2="846.25" y2="378.06" xlink:href="#b"/><linearGradient id="x" x1="733.07" y1="535.01" x2="692.59" y2="216.61" xlink:href="#b"/><linearGradient id="y" x1="928.03" y1="405.58" x2="934.24" y2="377.91" xlink:href="#g"/><linearGradient id="a`" x1="968.55" y1="498.02" x2="979.28" y2="450.16" xlink:href="#b"/><linearGradient id="aa" x1="944.87" y1="526.05" x2="921.79" y2="344.48" xlink:href="#b"/><linearGradient id="ab" x1="301.55" y1="441.03" x2="476.82" y2="236.55" xlink:href="#b"/><linearGradient id="ac" x1="414.99" y1="306.04" x2="140.96" y2="459.5" gradientTransform="matrix(1, 0, 0, 1, 0, 0)" gradientUnits="userSpaceOnUse"><stop offset="0" stop-color="#2c045c"/><stop offset="1" stop-color="#169dd8"/></linearGradient></defs><g><g><polygon class="ax" points="1007.96 168.09 1007.96 300.91 800.57 417.98 546.87 417.98 1007.96 168.09"/><polygon class="aw" points="1007.96 132.38 1007.96 168.09 546.87 417.98 485.86 417.98 1007.96 132.38"/></g><polygon class="ah" points="440.5 394.15 505.11 394.15 304.26 504.88 242.61 504.88 440.5 394.15"/><g><polygon class="ag" points="1007.96 380.38 1007.96 478.95 1003.56 481.45 772.22 481.45 979.45 374.57 1007.96 380.38"/><polygon class="aj" points="772.22 481.45 979.45 374.57 979.45 341.75 716.59 481.45 772.22 481.45"/><polygon class="ai" points="1007.96 348.25 1007.96 380.38 979.45 374.57 979.45 341.75 1007.96 348.25"/></g><g><polygon class="aq" points="410.32 378.73 593.02 283.74 497.42 183.04 410.32 378.73"/><polygon class="ap" points="593.02 283.74 895.98 354.04 895.98 493.83 410.32 379.15 593.02 283.74"/><polygon class="as" points="497.42 183.04 895.98 268.71 895.98 354.04 593.02 283.74 497.42 183.04"/></g><g><polygon class="ar" points="594.31 283.58 728.64 213.73 658.35 139.69 594.31 283.58"/><polygon class="au" points="728.64 213.73 895.98 254.37 895.98 357.15 594.31 283.88 728.64 213.73"/><polygon class="at" points="658.35 139.69 895.98 191.63 955.15 268.75 728.64 213.73 658.35 139.69"/></g><g><polygon class="av" points="472.81 490.2 852.28 288.45 1007.96 327.19 712.35 490.2 472.81 490.2"/><polygon class="al" points="1007.96 327.19 1007.96 287.53 875.64 250.58 852.28 288.45 1007.96 327.19"/><polygon class="ak" points="875.64 250.58 412.91 490.2 472.81 490.2 852.28 288.45 875.64 250.58"/></g><g><polygon class="an" points="832.6 225.38 1003.89 260.29 570.78 504.77 317.08 504.77 832.6 225.38"/><polygon class="ao" points="317.08 504.77 832.6 225.38 832.6 189.39 256.08 504.77 317.08 504.77"/><polygon class="am" points="832.6 189.39 832.6 225.38 1003.89 260.29 1003.89 228.42 832.6 189.39"/></g><g><polygon class="ae" points="722.89 387.56 894.18 422.47 749.33 504.77 495.63 504.77 722.89 387.56"/><polygon class="ad" points="495.63 504.77 722.89 387.56 722.89 351.57 434.63 504.77 495.63 504.77"/><polygon class="af" points="722.89 351.57 722.89 387.56 894.18 422.47 894.18 390.6 722.89 351.57"/></g><g><polygon class="b`" points="851.77 397.89 1007.96 429.72 875.88 504.77 644.54 504.77 851.77 397.89"/><polygon class="ay" points="644.54 504.77 851.77 397.89 851.77 365.07 588.91 504.77 644.54 504.77"/><polygon class="ba" points="851.77 365.07 851.77 397.89 1007.96 429.72 1007.96 397.89 851.77 365.07"/></g><g><polygon class="bd" points="1007.96 462.55 1007.96 504.77 926.12 504.77 1007.96 462.55"/><polygon class="bb" points="1008 429.72 1008 462.53 1007.96 462.55 926.12 504.77 866.79 504.77 1007.96 429.74 1008 429.72"/></g><polygon class="bc" points="148.16 504.77 368.18 378.73 440.5 394.15 242.61 504.77 148.16 504.77"/></g><polygon class="be" points="8 504.88 463.11 260.13 434.63 324.11 105.85 504.77 8 504.88"/></svg>