<?xml version="1.0" encoding="UTF-8"?><svg id="a" xmlns="http://www.w3.org/2000/svg" xmlns:xlink="http://www.w3.org/1999/xlink" viewBox="0 0 1115 1115"><defs><style>.s{filter:url(#m);}.s,.t,.u,.v{fill:#a7daeb;}.t{filter:url(#k);}.u{filter:url(#o);}.v{filter:url(#q);}.w{filter:url(#c);stroke:url(#b);}.w,.x,.y{fill:none;stroke-miterlimit:10;stroke-width:15px;}.x{filter:url(#f);stroke:url(#e);}.y{filter:url(#i);stroke:url(#h);}</style><linearGradient id="b" x1="1127.48" y1="1017.84" x2="439.34" y2="-174.04" gradientTransform="matrix(1, 0, 0, 1, 0, 0)" gradientUnits="userSpaceOnUse"><stop offset="0" stop-color="#00a3c5"/><stop offset=".11" stop-color="#1a89b8"/><stop offset=".27" stop-color="#3e67a7"/><stop offset=".41" stop-color="#54529c"/><stop offset=".5" stop-color="#5c4b99"/><stop offset=".59" stop-color="#55519c"/><stop offset=".71" stop-color="#4263a5"/><stop offset=".86" stop-color="#2480b3"/><stop offset="1" stop-color="#00a3c5"/></linearGradient><filter id="c" filterUnits="userSpaceOnUse"><feOffset dx="7" dy="7"/><feGaussianBlur result="d" stdDeviation="5"/><feFlood flood-color="#000" flood-opacity=".5"/><feComposite in2="d" operator="in"/><feComposite in="SourceGraphic"/></filter><linearGradient id="e" x1="1173.18" y1="797.17" x2="313.02" y2="-62.99" gradientTransform="matrix(1, 0, 0, 1, 0, 0)" gradientUnits="userSpaceOnUse"><stop offset="0" stop-color="#00a3c5"/><stop offset=".08" stop-color="#1f84b5"/><stop offset=".17" stop-color="#396ba9"/><stop offset=".26" stop-color="#4c59a0"/><stop offset=".35" stop-color="#584e9a"/><stop offset=".45" stop-color="#5c4b99"/><stop offset=".55" stop-color="#52539d"/><stop offset=".71" stop-color="#3a6ba9"/><stop offset=".92" stop-color="#1291bc"/><stop offset="1" stop-color="#00a3c5"/></linearGradient><filter id="f" filterUnits="userSpaceOnUse"><feOffset dx="7" dy="7"/><feGaussianBlur result="g" stdDeviation="5"/><feFlood flood-color="#000" flood-opacity=".5"/><feComposite in2="g" operator="in"/><feComposite in="SourceGraphic"/></filter><linearGradient id="h" x1="519.86" y1="345.49" x2="1026.61" y2="345.49" gradientTransform="matrix(1, 0, 0, 1, 0, 0)" gradientUnits="userSpaceOnUse"><stop offset="0" stop-color="#00a3c5"/><stop offset=".04" stop-color="#1b88b7"/><stop offset=".09" stop-color="#3371ac"/><stop offset=".15" stop-color="#4560a3"/><stop offset=".22" stop-color="#52549d"/><stop offset=".31" stop-color="#594d9a"/><stop offset=".5" stop-color="#5c4b99"/><stop offset=".73" stop-color="#5a4c99"/><stop offset=".81" stop-color="#53539d"/><stop offset=".87" stop-color="#475ea2"/><stop offset=".92" stop-color="#366eaa"/><stop offset=".96" stop-color="#2083b5"/><stop offset=".99" stop-color="#069dc2"/><stop offset="1" stop-color="#00a3c5"/></linearGradient><filter id="i" filterUnits="userSpaceOnUse"><feOffset dx="7" dy="7"/><feGaussianBlur result="j" stdDeviation="5"/><feFlood flood-color="#000" flood-opacity=".5"/><feComposite in2="j" operator="in"/><feComposite in="SourceGraphic"/></filter><filter id="k" filterUnits="userSpaceOnUse"><feOffset dx="0" dy="0"/><feGaussianBlur result="l" stdDeviation="10"/><feFlood flood-color="#0e87a0" flood-opacity="1"/><feComposite in2="l" operator="in"/><feComposite in="SourceGraphic"/></filter><filter id="m" filterUnits="userSpaceOnUse"><feOffset dx="0" dy="0"/><feGaussianBlur result="n" stdDeviation="10"/><feFlood flood-color="#0e87a0" flood-opacity="1"/><feComposite in2="n" operator="in"/><feComposite in="SourceGraphic"/></filter><filter id="o" filterUnits="userSpaceOnUse"><feOffset dx="0" dy="0"/><feGaussianBlur result="p" stdDeviation="10"/><feFlood flood-color="#0e87a0" flood-opacity="1"/><feComposite in2="p" operator="in"/><feComposite in="SourceGraphic"/></filter><filter id="q" filterUnits="userSpaceOnUse"><feOffset dx="0" dy="0"/><feGaussianBlur result="r" stdDeviation="10"/><feFlood flood-color="#0e87a0" flood-opacity="1"/><feComposite in2="r" operator="in"/><feComposite in="SourceGraphic"/></filter></defs><polyline class="w" points="1064.78 279.95 599.48 279.95 599.48 49.71 832.13 49.71 832.13 511.73 1064.78 511.73 1064.78 1049.71 1064.78 280.72 1064.78 49.71 64.78 49.71"/><polyline class="x" points="954.31 1008.54 954.31 155.56 101.96 155.56"/><polyline class="y" points="527.36 379.98 527.36 91.22 1019.11 91.22 1019.11 599.76 757.38 599.76"/><path class="t" d="M70.14,49.72c0,12.43-10.07,22.5-22.5,22.5s-22.5-10.07-22.5-22.5,10.07-22.5,22.5-22.5,22.5,10.07,22.5,22.5Z"/><path class="s" d="M549.86,392.28c0,12.43-10.07,22.5-22.5,22.5s-22.5-10.07-22.5-22.5,10.07-22.5,22.5-22.5,22.5,10.07,22.5,22.5Z"/><path class="u" d="M765.32,599.76c0,12.43-10.07,22.5-22.5,22.5s-22.5-10.07-22.5-22.5,10.07-22.5,22.5-22.5,22.5,10.07,22.5,22.5Z"/><path class="v" d="M1087.28,1064.64c0,12.43-10.07,22.5-22.5,22.5s-22.5-10.07-22.5-22.5,10.07-22.5,22.5-22.5,22.5,10.07,22.5,22.5Z"/></svg>